<svg xmlns="http://www.w3.org/2000/svg" width="104" height="104" viewBox="0 0 104 104">
    <g fill="none" fill-rule="evenodd">
        <g fill-rule="nonzero">
            <path fill="#CCC" fill-opacity=".2" d="M52.42 4C32.21 4 11.999 6.526 11.999 24.211v48c.117 9.718 7.966 17.567 17.684 17.684l-7.579 7.579V100H33.22l10.105-10.105h19.2L72.631 100h10.105v-2.526l-7.579-7.579c9.718-.117 17.567-7.966 17.684-17.684v-48C92.841 6.526 74.652 4 52.42 4zM29.683 79.789a7.579 7.579 0 1 1 0-15.158 7.579 7.579 0 0 1 0 15.158zm17.684-35.368H22.104v-20.21h25.263v20.21zm10.105 0v-20.21h25.264v20.21H57.472zm17.685 35.368a7.579 7.579 0 1 1 7.579-7.579 7.771 7.771 0 0 1-7.579 7.579z"/>
            <g transform="translate(36 42.015)">
                <ellipse cx="16.92" cy="50.491" fill="#FFF" stroke="#010101" rx="6.686" ry="6.495"/>
                <ellipse cx="16.92" cy="50.491" fill="#000" rx="3.184" ry="3.093"/>
                <g transform="translate(0 .986)">
                    <path fill="#36B567" d="M17.079 50.278a49.362 49.362 0 0 0-5.89-14.69c-1.91-3.247-3.98-6.185-6.05-9.278l-1.91-3.247A15.972 15.972 0 0 1 1 15.021a13.707 13.707 0 0 1 2.388-7.886A16.007 16.007 0 0 1 14.532.177a17.5 17.5 0 0 1 10.826 2.01 14.482 14.482 0 0 1 5.254 4.948A13.571 13.571 0 0 1 33 14.867c.057 1.52-.159 3.04-.637 4.484a34.854 34.854 0 0 1-1.592 3.557 43.106 43.106 0 0 1-3.98 6.34c-4.14 6.185-8.12 12.366-9.712 21.03z"/>
                    <ellipse cx="16.92" cy="15.022" fill="#FFF" stroke="#36B567" stroke-width=".5" rx="6.686" ry="6.495"/>
                </g>
            </g>
        </g>
        <path d="M0 0h104v104H0z"/>
    </g>
</svg>
